<?xml version="1.0" encoding="UTF-8"?>
<svg xmlns="http://www.w3.org/2000/svg" viewBox="0 0 64 64" width="512" height="512"><g id="_01-House" data-name="01-House"><path d="M61,56H60a5.05666,5.05666,0,0,0-1.542-3.56006A4.854,4.854,0,0,0,55.9209,51.083a5.46872,5.46872,0,0,0-9.8418,0A4.854,4.854,0,0,0,43.542,52.43994,5.05666,5.05666,0,0,0,42,56H30V33a1,1,0,0,0-1-1H15a1,1,0,0,0-1,1V56H10V28.36835L32,10.29443,54,28.36835V46a1,1,0,0,0,2,0V30.01141l.9751.80109a.99951.99951,0,0,0,1.40088-.12988l3.39013-4.04a1.00047,1.00047,0,0,0-.13134-1.41553L56,20.59845V4a2.002,2.002,0,0,0-2-2H46a2.002,2.002,0,0,0-2,2v6.74127L34.40771,2.86182a3.8943,3.8943,0,0,0-4.81542,0L2.36523,25.227a1.00047,1.00047,0,0,0-.13134,1.41553l3.39013,4.04a.99948.99948,0,0,0,1.40088.12988L8,30.01141V56H3a1,1,0,0,0-1,1v4a1,1,0,0,0,1,1H61a1,1,0,0,0,1-1V57A1,1,0,0,0,61,56ZM46,4h8V18.95557l-8-6.57148ZM6.52,28.63916,4.41553,26.13135,30.86182,4.40771a1.83816,1.83816,0,0,1,2.27636,0L59.58447,26.13135,57.48,28.63916,32.63477,8.22754a.99918.99918,0,0,0-1.26954,0ZM44.9458,53.86475a2.63136,2.63136,0,0,1,1.80615-.83789,1.00024,1.00024,0,0,0,.95948-.6709,3.47316,3.47316,0,0,1,6.57714,0,.98391.98391,0,0,0,.95948.6709,2.70077,2.70077,0,0,1,1.80615.83789A3.04742,3.04742,0,0,1,58,56H44A3.04742,3.04742,0,0,1,44.9458,53.86475ZM16,34H28V56H16ZM60,60H4V58H60ZM35,32a1,1,0,0,0-1,1V45a1,1,0,0,0,1,1H49a1,1,0,0,0,1-1V33a1,1,0,0,0-1-1Zm13,6H43V34h5Zm-7-4v4H36V34Zm-5,6h5v4H36Zm7,4V40h5v4Z"/></g></svg>
