<svg id="_x33_0" enable-background="new 0 0 62 62" height="512" viewBox="0 0 62 62" width="512" xmlns="http://www.w3.org/2000/svg"><g><path d="m31 38c3.136 0 5.797 2.074 6.685 4.921l-1.13-.753-1.109 1.664 3.554 2.37 3.555-2.37-1.109-1.664-1.619 1.079c-.819-4.126-4.464-7.247-8.827-7.247-4.109 0-7.693 2.776-8.716 6.751l1.937.498c.795-3.091 3.583-5.249 6.779-5.249z"/><path d="m31 52c-3.136 0-5.797-2.074-6.685-4.921l1.13.753 1.109-1.664-3.554-2.37-3.555 2.37 1.109 1.664 1.619-1.079c.819 4.126 4.464 7.247 8.827 7.247 4.109 0 7.693-2.776 8.716-6.751l-1.937-.498c-.795 3.091-3.583 5.249-6.779 5.249z"/><path d="m60 26h-.465l-1.368-2.052c-.109-.164-.167-.355-.167-.553v-1.566c0-.801-.312-1.555-.879-2.121l-.207-.208.086-.086c.645-.646 1-1.503 1-2.414s-.355-1.769-1-2.414l-1.585-1.586c-1.289-1.289-3.541-1.289-4.829 0l-3 3h-5.586v-9c0-1.654-1.346-3-3-3h-1v-2c0-1.103-.897-2-2-2h-2c-1.103 0-2 .897-2 2v2h-1c-1.654 0-3 1.346-3 3v7.146c-.502.149-.967.407-1.348.788l-1.359 1.359 1.414 1.414 1.359-1.359c.484-.483 1.379-.42 1.79.127l1.744 2.326c.565.751 1.462 1.199 2.4 1.199h2.395c.593 0 1.168-.174 1.664-.504l1.992-1.328c.165-.109.357-.168.554-.168h4.98l-2 2h-1.585v2h2.882c.309 0 .586.171.724.447.478.958 1.441 1.553 2.512 1.553h1.882c1.103 0 2 .897 2 2h-16.764l-1.315-.657c-.155-.077-.287-.194-.384-.34l-1.112-1.667c-.557-.837-1.49-1.336-2.495-1.336h-1.93v2h1.93c.335 0 .646.166.832.445l1.037 1.555h-19.799v-.867c0-.35.187-.679.486-.858l3.317-1.99c.688-.412 1.173-1.067 1.368-1.846l.42-1.681c.112-.446.511-.758.971-.758h5.438v-2h-4.586l-7-7c-1.289-1.289-3.541-1.289-4.829 0l-6.585 6.586c-.645.645-1 1.503-1 2.414s.355 1.769 1 2.414l5.586 5.586h-4.586c-1.103 0-2 .897-2 2v2c0 1.103.897 2 2 2h.065l1.813 27.199c.105 1.571 1.42 2.801 2.993 2.801h48.258c1.573 0 2.888-1.23 2.993-2.801l1.813-27.199h.065c1.103 0 2-.897 2-2v-2c0-1.103-.897-2-2-2zm-25-14c-1.832 0-3.481 1.02-4.351 2.546-.204-.134-.42-.243-.649-.328v-4.218h10v6.069c-.031.006-.061.013-.092.021-.43-2.323-2.463-4.09-4.908-4.09zm-1-10h2v2h-2zm-3 4h8c.551 0 1 .448 1 1v1h-10v-1c0-.552.449-1 1-1zm5.395 12h-2.395c-.313 0-.612-.149-.8-.399l-1.073-1.43c.366-1.26 1.534-2.171 2.873-2.171 1.654 0 3 1.346 3 3 0 .048-.01.093-.012.14l-1.038.692c-.166.109-.358.168-.555.168zm17.605-3.586 1.585 1.586c.268.268.415.622.415 1s-.147.732-.414 1l-.586.586-3.586-3.586.586-.586c.534-.535 1.466-.535 2 0zm-5.882 7.586c-.309 0-.586-.171-.724-.447-.283-.565-.744-.982-1.286-1.247l3.892-3.892 3.586 3.586-2.247 2.247c-.421-.15-.867-.247-1.339-.247zm4.896 1.4 2.486-2.485.207.207c.186.186.293.443.293.706v1.566c0 .596.174 1.171.504 1.664l.628.942h-3.132c0-.997-.38-1.899-.986-2.6zm-50.599-4.4c-.268-.268-.415-.622-.415-1s.147-.732.414-1l6.586-6.586c.533-.535 1.465-.535 2 0l6.02 6.02c-.664.399-1.17 1.044-1.369 1.839l-.42 1.682c-.064.259-.226.477-.456.614l-3.319 1.991c-.898.54-1.456 1.526-1.456 2.573v.867h-.586zm3.458 40.066-1.804-27.066h11.931v28h-9.129c-.524 0-.963-.41-.998-.934zm38.127-27.066v28h-26v-28zm12.127 27.066c-.035.524-.474.934-.998.934h-9.129v-28h11.931zm-54.127-29.066v-2h58l.001 2z"/><path d="m10 22c2.206 0 4-1.794 4-4s-1.794-4-4-4-4 1.794-4 4 1.794 4 4 4zm0-6c1.103 0 2 .897 2 2s-.897 2-2 2-2-.897-2-2 .897-2 2-2z"/><path d="m22 22h4v2h-4z"/></g></svg>