<?xml version="1.0" encoding="UTF-8"?>
<svg xmlns="http://www.w3.org/2000/svg" width="22" height="14" viewBox="0 0 22 14" fill="none">
  <path d="M21 0H0V14.0002H21V0Z" fill="#F0F0F0"></path>
  <path d="M11.8125 0H9.1875V5.68747H0V8.31247H9.1875V13.9999H11.8125V8.31247H21V5.68747H11.8125V0Z" fill="#D80027"></path>
  <path d="M16.1523 9.43457L21.001 12.1283V9.43457H16.1523Z" fill="#0052B4"></path>
  <path d="M12.7832 9.43457L21.0006 13.9998V12.7088L15.1069 9.43457H12.7832Z" fill="#0052B4"></path>
  <path d="M18.8118 13.9999L12.7832 10.6504V13.9999H18.8118Z" fill="#0052B4"></path>
  <path d="M12.7832 9.43457L21.0006 13.9998V12.7088L15.1069 9.43457H12.7832Z" fill="#F0F0F0"></path>
  <path d="M12.7832 9.43457L21.0006 13.9998V12.7088L15.1069 9.43457H12.7832Z" fill="#D80027"></path>
  <path d="M3.70539 9.43457L0 11.4931V9.43457H3.70539Z" fill="#0052B4"></path>
  <path d="M8.21679 10.0151V13.9998H1.04492L8.21679 10.0151Z" fill="#0052B4"></path>
  <path d="M5.89366 9.43457L0 12.7088V13.9998L8.2174 9.43457H5.89366Z" fill="#D80027"></path>
  <path d="M4.84866 4.56532L0 1.87158V4.56532H4.84866Z" fill="#0052B4"></path>
  <path d="M8.2174 4.5652L0 0V1.29093L5.89366 4.5652H8.2174Z" fill="#0052B4"></path>
  <path d="M2.18945 0L8.21801 3.3495V0H2.18945Z" fill="#0052B4"></path>
  <path d="M8.2174 4.5652L0 0V1.29093L5.89366 4.5652H8.2174Z" fill="#F0F0F0"></path>
  <path d="M8.2174 4.5652L0 0V1.29093L5.89366 4.5652H8.2174Z" fill="#D80027"></path>
  <path d="M17.2949 4.56517L21.0003 2.50659V4.56517H17.2949Z" fill="#0052B4"></path>
  <path d="M12.7832 3.98471V0H19.9551L12.7832 3.98471Z" fill="#0052B4"></path>
  <path d="M15.1069 4.5652L21.0006 1.29093V0L12.7832 4.5652H15.1069Z" fill="#D80027"></path>
</svg>
