<svg id="Capa_1" enable-background="new 0 0 511.94 511.94" fill="#ffb966" height="14" viewBox="0 0 511.94 511.94" width="14" xmlns="http://www.w3.org/2000/svg"><g><g><path d="m384.29 94.52-23.32-15.55v73.03c0 16.54-13.46 30-30 30s-30-13.46-30-30v-15c0-109.04-86.87-137-195-137h-36.21l25.6 25.61c34.83 34.82 25.15 78.06-.37 104.2-41.29 42.27-64.02 98.09-64.02 157.19 0 123.44 99.8 224.94 225.04 224.94 134.49 0 224.96-106.47 224.96-224.94v-11.83c0-72.76-36.14-140.29-96.68-180.65zm-41.65 312.79c-29.31 29.31-76.75 29.32-106.06 0l-63.64-63.64c-29.31-29.31-29.32-76.75 0-106.06l31.82-31.82 63.64 63.64-10.61 10.6c-5.86 5.87-5.86 15.35 0 21.22l21.21 21.21c5.87 5.86 15.35 5.86 21.22 0l10.6-10.61 63.64 63.64zm-84.85-63.64-21.21-21.21c-13.83-13.83-16.76-34.49-8.79-51.22l-23.03-23.03-10.61 10.61c-17.59 17.58-17.59 46.05 0 63.64l63.64 63.64c17.59 17.58 46.05 17.59 63.64 0l10.61-10.61-23.03-23.03c-16.73 7.97-37.39 5.04-51.22-8.79z"/></g></g></svg>