<?xml version="1.0" encoding="iso-8859-1"?>
<!-- Generator: Adobe Illustrator 19.0.0, SVG Export Plug-In . SVG Version: 6.00 Build 0)  -->
<svg version="1.1" id="Layer_1" xmlns="http://www.w3.org/2000/svg" xmlns:xlink="http://www.w3.org/1999/xlink" x="0px" y="0px"
	 viewBox="0 0 512 512" style="enable-background:new 0 0 512 512;" xml:space="preserve">
<g>
	<g>
		<g>
			<path d="M65.084,426.929c-16.274,0-29.515,13.266-29.515,29.571c0,16.305,13.24,29.571,29.515,29.571
				c16.274,0,29.514-13.266,29.514-29.571C94.598,440.195,81.358,426.929,65.084,426.929z M65.084,471.07
				c-8.002,0-14.514-6.536-14.514-14.57s6.51-14.57,14.514-14.57c8.002,0,14.513,6.536,14.513,14.57S73.086,471.07,65.084,471.07z"
				/>
			<path d="M397.929,486.071c16.273,0,29.514-13.266,29.514-29.571s-13.24-29.571-29.514-29.571s-29.515,13.266-29.515,29.571
				S381.655,486.071,397.929,486.071z M397.929,441.93c8.003,0,14.513,6.536,14.513,14.57c0,8.033-6.51,14.57-14.513,14.57
				s-14.514-6.536-14.514-14.57C383.415,448.466,389.926,441.93,397.929,441.93z"/>
			<path d="M100.035,438.312c-1.414,1.918-1.832,4.394-1.126,6.67c1.15,3.712,1.734,7.587,1.734,11.519
				c0,3.93-0.583,7.805-1.734,11.52c-0.705,2.275-0.287,4.751,1.126,6.67c1.414,1.918,3.655,3.05,6.038,3.05h250.867
				c2.383,0,4.623-1.132,6.037-3.05c1.414-1.918,1.832-4.394,1.127-6.67c-1.15-3.715-1.734-7.59-1.734-11.52
				s0.583-7.805,1.734-11.52c0.705-2.276,0.287-4.752-1.127-6.67c-1.413-1.918-3.654-3.05-6.037-3.05H106.072
				C103.69,435.26,101.448,436.392,100.035,438.312z M115.285,450.261h232.442c-0.238,2.063-0.358,4.146-0.358,6.238
				c0,2.092,0.12,4.174,0.358,6.238H115.285c0.238-2.063,0.358-4.146,0.358-6.238C115.643,454.407,115.524,452.325,115.285,450.261z
				"/>
			<path d="M213.157,319.322c-4.142,0-7.5,3.357-7.5,7.5s3.358,7.5,7.5,7.5h18.392c4.142,0,7.5-3.357,7.5-7.5s-3.358-7.5-7.5-7.5
				H213.157z"/>
			<path d="M46.839,346.758c2.778,0,5.448-1.551,6.748-4.217l18.658-38.286c1.814-3.723,0.267-8.214-3.457-10.028
				c-3.725-1.814-8.214-0.269-10.029,3.457l-18.658,38.286c-1.814,3.723-0.267,8.214,3.457,10.028
				C44.617,346.514,45.736,346.758,46.839,346.758z"/>
			<path d="M84.215,346.758c2.778,0,5.448-1.551,6.748-4.217l18.658-38.286c1.814-3.723,0.267-8.214-3.457-10.028
				c-3.725-1.814-8.213-0.269-10.029,3.457l-18.658,38.286c-1.814,3.723-0.267,8.214,3.457,10.028
				C81.993,346.514,83.112,346.758,84.215,346.758z"/>
			<path d="M121.591,346.758c2.778,0,5.448-1.551,6.748-4.217l18.658-38.286c1.814-3.723,0.267-8.214-3.457-10.028
				c-3.724-1.814-8.213-0.269-10.029,3.457l-18.658,38.286c-1.814,3.723-0.267,8.214,3.457,10.028
				C119.369,346.514,120.488,346.758,121.591,346.758z"/>
			<path d="M313.141,307.929c5.384,0,9.765-4.383,9.765-9.771v-27.356c0-1.471-0.34-2.948-0.986-4.279l-18.268-37.509
				c-1.624-3.334-5.069-5.487-8.775-5.487h-80.722c-5.384,0-9.765,4.383-9.765,9.771v37.258c0,2.589,1.055,5.119,2.896,6.943
				l27.874,27.603c1.84,1.823,4.28,2.827,6.87,2.827H313.141z M219.391,268.375v-29.847H291.6l16.305,33.481v20.919h-63.719
				L219.391,268.375z"/>
			<path d="M407.56,333.878c0,28.232,22.917,51.2,51.087,51.2c28.17,0,51.087-22.968,51.087-51.2
				c0-25.677-18.96-46.995-43.586-50.643v-63.55h9.139c5.869,0,11.009-4.172,12.22-9.922l8.306-39.43
				c0.78-3.707-0.141-7.519-2.526-10.46c-2.06-2.539-4.983-4.136-8.179-4.523l-73.538-69.313c-3.014-2.839-7.76-2.701-10.604,0.313
				c-2.841,3.015-2.7,7.761,0.313,10.604l61.854,58.3h-25.407L313.774,54.654l-15.416-12.513c-0.475-0.401-0.912-0.83-1.328-1.275
				c-0.119-0.128-0.228-0.263-0.342-0.394c-0.298-0.341-0.583-0.691-0.848-1.056c-0.097-0.133-0.191-0.268-0.283-0.404
				c-0.297-0.44-0.577-0.892-0.827-1.363c-0.029-0.053-0.06-0.105-0.089-0.159c-0.294-0.57-0.557-1.161-0.783-1.775
				c-0.015-0.042-0.037-0.08-0.053-0.121c-0.514-1.442-0.82-2.972-0.889-4.559c-0.189-4.377,1.409-8.49,4.503-11.581
				c5.949-5.941,15.641-5.956,21.605-0.03c0.047,0.047,0.094,0.093,0.142,0.138l60.151,56.695c3.015,2.84,7.761,2.701,10.604-0.313
				c2.841-3.015,2.7-7.762-0.313-10.604L329.522,8.707c-11.816-11.657-30.95-11.607-42.703,0.133
				c-6.017,6.011-9.258,14.338-8.89,22.844c0.055,1.268,0.199,2.522,0.409,3.761L59.255,208.924
				c-10.995,0.095-19.911,9.076-19.911,20.108v34.239H20.138c-9.855,0-17.873,8.029-17.873,17.9v23.732c0,4.143,3.358,7.5,7.5,7.5
				c4.142,0,7.5-3.357,7.5-7.5v-23.732c0-1.599,1.288-2.899,2.872-2.899h26.706h81.14h44.504c9.855,0,17.873-8.029,17.873-17.899
				v-44.978c0-1.599,1.289-2.898,2.872-2.898h113.44c2.667,0,5.147,1.556,6.32,3.965l23.405,48.06
				c0.469,0.962,0.717,2.038,0.717,3.11v93.152c0,3.901-3.157,7.076-7.038,7.076h-24.283H157.218H20.138
				c-1.583,0-2.872-1.301-2.872-2.899v-29.598c0-4.143-3.358-7.5-7.5-7.5c-4.142,0-7.5,3.357-7.5,7.5v29.598
				c0,9.871,8.017,17.9,17.873,17.9h129.579V401H57.703c-30.568,0-55.437,24.868-55.437,55.437v0.124
				C2.265,487.129,27.135,512,57.703,512h347.606c30.568,0,55.437-24.869,55.437-55.438v-0.124
				c0-30.568-24.868-55.437-55.437-55.437h-92.015v-18.139h16.783c12.152,0,22.039-9.904,22.039-22.077v-93.152
				c0-3.335-0.771-6.682-2.23-9.68l-23.405-48.059c-3.667-7.531-11.442-12.398-19.808-12.398H193.233
				c-9.855,0-17.873,8.029-17.873,17.899v44.978c0,1.599-1.288,2.898-2.872,2.898h-37.003v-10.196c0-5.153-0.894-10.099-2.52-14.7
				L314.57,74.619l107.933,87.602c-1.232,2.488-1.605,5.33-1.02,8.114l8.306,39.43c1.211,5.748,6.35,9.921,12.22,9.921h9.139v63.55
				C426.522,286.883,407.56,308.2,407.56,333.878z M164.719,382.862h133.575v18.139H164.719V382.862z M405.31,416.001
				c22.295,0.001,40.435,18.14,40.435,40.436v0.124c0,22.297-18.14,40.437-40.436,40.437H57.704
				c-22.296,0-40.436-18.14-40.436-40.437v-0.124c0-22.296,18.14-40.436,40.436-40.436h99.516h148.575H405.31z M120.484,263.27
				h-66.14v-34.237c0-2.821,2.281-5.116,5.084-5.116h2.866h29.123c0.611,0,1.218,0.026,1.822,0.063
				c0.183,0.011,0.364,0.027,0.546,0.042c0.44,0.036,0.877,0.082,1.313,0.137c0.185,0.024,0.37,0.044,0.554,0.071
				c0.555,0.081,1.106,0.177,1.652,0.289c0.225,0.047,0.446,0.104,0.668,0.155c0.326,0.075,0.651,0.154,0.974,0.24
				c0.299,0.081,0.596,0.165,0.891,0.254c0.211,0.064,0.42,0.134,0.629,0.202c1.214,0.4,2.396,0.872,3.534,1.422
				c0.004,0.002,0.009,0.004,0.013,0.006c4.135,2.003,7.724,4.964,10.491,8.589c0.112,0.148,0.226,0.296,0.335,0.446
				c0.192,0.262,0.381,0.527,0.565,0.796c0.253,0.373,0.501,0.75,0.738,1.137c0.102,0.165,0.201,0.332,0.3,0.499
				c0.252,0.428,0.494,0.864,0.726,1.308c2.113,4.04,3.315,8.63,3.315,13.501V263.27z M125.422,224.977
				c-5.452-6.651-12.693-11.503-20.828-14.044c-0.051-0.016-0.103-0.033-0.154-0.049c-0.588-0.181-1.18-0.35-1.777-0.507
				c-0.181-0.048-0.362-0.094-0.544-0.139c-0.51-0.127-1.021-0.247-1.537-0.356c-0.282-0.06-0.566-0.113-0.849-0.168
				c-0.445-0.085-0.89-0.169-1.339-0.24c-0.372-0.06-0.748-0.107-1.123-0.158c-0.38-0.05-0.759-0.105-1.142-0.146
				c-0.481-0.052-0.967-0.086-1.452-0.122c-0.293-0.021-0.584-0.052-0.878-0.067c-0.788-0.042-1.581-0.066-2.38-0.066h-7.987
				L284.701,49.543c0.062,0.076,0.133,0.144,0.196,0.219c0.529,0.64,1.08,1.263,1.662,1.86c0.072,0.074,0.148,0.144,0.221,0.217
				c0.631,0.634,1.286,1.247,1.976,1.827c0.032,0.027,0.063,0.053,0.096,0.079l13.929,11.307L125.422,224.977z M444.048,204.685
				l-7.252-34.429h43.701l-7.252,34.429H444.048z M458.647,297.68c19.897,0,36.086,16.238,36.086,36.198
				c0,19.96-16.189,36.199-36.086,36.199c-19.897,0-36.086-16.239-36.086-36.199C422.561,313.918,438.75,297.68,458.647,297.68z"/>
		</g>
	</g>
</g>
<g>
</g>
<g>
</g>
<g>
</g>
<g>
</g>
<g>
</g>
<g>
</g>
<g>
</g>
<g>
</g>
<g>
</g>
<g>
</g>
<g>
</g>
<g>
</g>
<g>
</g>
<g>
</g>
<g>
</g>
</svg>
