<svg id="Capa_1" enable-background="new 0 0 512 512" height="512" viewBox="0 0 512 512" width="512" xmlns="http://www.w3.org/2000/svg"><g><g><g><path d="m457.227 380.937 15.218-185.937h2.055c20.678 0 37.5-16.822 37.5-37.5s-16.822-37.5-37.5-37.5h-5.784c-2.247-10.133-5.914-19.789-10.894-28.749h7.023c7.976 0 15.101-4.761 18.152-12.13 3.052-7.368 1.38-15.773-4.259-21.411l-29.235-29.235c-5.64-5.639-14.042-7.311-21.412-4.259-7.368 3.052-12.129 10.177-12.129 18.152v7.093c-12.508-6.942-26.352-11.406-40.688-12.936-22.603-2.414-45.57 2.456-65.132 13.722-8.314-5.097-17.266-9.033-26.612-11.706l4.998-4.999c5.64-5.639 7.313-14.044 4.261-21.412-3.054-7.369-10.179-12.13-18.154-12.13h-41.345c-7.975 0-15.1 4.761-18.152 12.128-3.052 7.368-1.38 15.773 4.259 21.413l4.999 4.999c-8.618 2.465-16.906 5.992-24.664 10.525-32.802-17.946-71.997-17.222-103.693.367v-7.063c0-7.976-4.761-15.101-12.129-18.152-7.369-3.053-15.773-1.38-21.412 4.259l-29.235 29.234c-5.64 5.639-7.312 14.043-4.26 21.412s10.177 12.13 18.152 12.13h7.033c-4.981 8.963-8.67 18.616-10.919 28.749h-5.769c-20.678-.001-37.5 16.821-37.5 37.499s16.822 37.5 37.5 37.5h2.055l15.217 185.923c-26.624 9.499-44.772 34.885-44.772 63.577 0 12.084 3.233 23.943 9.35 34.294 1.399 2.369 3.898 3.686 6.464 3.686 1.297 0 2.611-.336 3.809-1.044 3.566-2.107 4.749-6.707 2.642-10.272-4.753-8.042-7.265-17.263-7.265-26.664 0-21.049 12.558-39.802 31.354-48.065 1.494 8.351 4.535 16.283 8.938 23.432-9.053 4.506-15.292 13.852-15.292 24.633 0 15.164 12.337 27.5 27.5 27.5 13.459 0 24.684-9.722 27.038-22.511 5.885 1.65 12.017 2.511 18.252 2.511h6.655c-3.677 25.348-25.706 45-51.945 45-9.551 0-18.897-2.587-27.03-7.483-3.55-2.136-8.158-.991-10.294 2.558s-.991 8.157 2.558 10.293c10.468 6.301 22.49 9.632 34.766 9.632 17.841 0 34.664-6.895 47.371-19.415 11.156-10.991 18.022-25.216 19.714-40.585h222.84c1.705 15.463 8.639 29.771 19.897 40.774 12.683 12.398 29.439 19.226 47.178 19.226 37.22 0 67.5-30.28 67.5-67.5 0-28.581-18.188-54.056-44.773-63.563zm-35.164 62.535c4.607-2.57 8.935-5.692 12.888-9.334.672-.619 1.323-1.256 1.967-1.899 5.739 1.13 10.082 6.195 10.082 12.261 0 6.893-5.607 12.5-12.5 12.5s-12.5-5.607-12.5-12.5c0-.345.036-.686.063-1.028zm8.899-401.104c0-2.803 2.007-3.937 2.869-4.294.863-.357 3.083-.974 5.064 1.008l29.236 29.236c1.981 1.981 1.364 4.202 1.007 5.064s-1.491 2.87-4.294 2.87h-17.107c-2.466-3.072-5.104-6.031-7.924-8.851-2.805-2.805-5.771-5.424-8.852-7.887v-17.146zm-1.756 35.638c11.738 11.738 19.964 26.134 24.088 41.994h-94.075c-4.768-23.006-17.043-43.961-34.968-59.464-.193-.167-.395-.322-.59-.487 35.158-17.063 77.285-10.302 105.545 17.957zm-175.243-28.631c42.603 0 79.938 29.864 89.881 70.625h-179.764c9.943-40.766 47.268-70.625 89.883-70.625zm-23.959-26.44c-1.982-1.982-1.365-4.203-1.008-5.065s1.491-2.87 4.294-2.87h41.345c2.804 0 3.938 2.006 4.295 2.869.356.863.974 3.083-1.009 5.065l-12.121 12.122c-3.916-.434-7.864-.68-11.837-.68-3.974 0-7.922.246-11.838.68zm-182.849 53.316c-2.803 0-3.937-2.007-4.294-2.87s-.975-3.083 1.008-5.065l29.235-29.235c1.98-1.981 4.2-1.365 5.064-1.008.862.357 2.869 1.491 2.869 4.294v17.133c-3.063 2.453-6.027 5.074-8.852 7.899-2.819 2.82-5.46 5.777-7.927 8.851zm35.639 1.755c27.273-27.274 68.336-34.528 102.923-19.158-.693.57-1.395 1.127-2.075 1.716-17.909 15.501-30.17 36.444-34.935 59.436h-90.009c4.125-15.861 12.372-30.269 24.096-41.994zm7.206 366.494c0 6.893-5.607 12.5-12.5 12.5s-12.5-5.607-12.5-12.5c0-6.065 4.344-11.131 10.082-12.261.644.643 1.295 1.28 1.967 1.899 3.957 3.647 8.292 6.771 12.906 9.344.027.338.045.677.045 1.018zm-19.535-55.717-15.861-193.783h283.181c4.143 0 7.5-3.358 7.5-7.5s-3.357-7.5-7.5-7.5h-300.285c-12.406 0-22.5-10.093-22.5-22.5s10.094-22.5 22.5-22.5h437c12.406 0 22.5 10.093 22.5 22.5s-10.094 22.5-22.5 22.5h-106.715c-4.143 0-7.5 3.358-7.5 7.5s3.357 7.5 7.5 7.5h89.61l-15.86 193.783c-2.213 27.037-25.196 48.217-52.325 48.217h-266.42c-27.129 0-50.112-21.18-52.325-48.217zm364.035 108.217c-26.154 0-48.256-19.683-51.945-45h6.655c6.235 0 12.367-.862 18.252-2.511 2.354 12.789 13.579 22.511 27.038 22.511 15.163 0 27.5-12.336 27.5-27.5 0-10.781-6.239-20.127-15.292-24.632 4.402-7.148 7.443-15.078 8.937-23.426 18.773 8.276 31.355 27.091 31.355 48.058 0 28.949-23.552 52.5-52.5 52.5z"/></g><g><path d="m267.273 257.729 11.654 20.186-5.844-2.546c-3.798-1.656-8.218.082-9.872 3.88-1.654 3.797.083 8.217 3.88 9.871l26.722 11.643c.958.417 1.979.625 2.996.625 1.299 0 2.594-.337 3.75-1.005 2.061-1.19 3.435-3.287 3.702-5.651l3.278-28.963c.466-4.116-2.493-7.83-6.608-8.296-4.115-.459-7.83 2.493-8.296 6.609l-.717 6.336-11.655-20.187c-4.97-8.61-13.873-13.75-23.814-13.75 0 0 0 0-.001 0-9.941 0-18.845 5.14-23.815 13.75l-12.972 22.468c-2.071 3.587-.842 8.174 2.745 10.245 3.588 2.07 8.175.841 10.245-2.745l12.972-22.468c2.26-3.914 6.307-6.25 10.826-6.25 4.519-.002 8.565 2.335 10.824 6.248z"/></g><g><path d="m317.36 314.481c-2.07-3.588-6.66-4.817-10.245-2.745-3.587 2.071-4.816 6.658-2.745 10.245l12.972 22.469c2.26 3.914 2.26 8.586 0 12.5s-6.307 6.25-10.825 6.25h-23.309l5.128-3.789c3.331-2.461 4.036-7.157 1.575-10.489-2.462-3.333-7.158-4.038-10.489-1.576l-23.444 17.321c-1.914 1.414-3.043 3.652-3.043 6.032s1.129 4.618 3.043 6.032l23.444 17.32c1.341.991 2.902 1.468 4.451 1.468 2.299 0 4.567-1.053 6.038-3.044 2.461-3.332 1.756-8.027-1.575-10.489l-5.127-3.788h23.308c9.941 0 18.845-5.14 23.815-13.75 4.971-8.61 4.971-18.89 0-27.5z"/></g><g><path d="m232.399 363.2h-25.944c-4.519 0-8.565-2.336-10.825-6.25s-2.26-8.586 0-12.5l11.654-20.186.717 6.335c.433 3.83 3.678 6.658 7.442 6.657.282 0 .566-.016.853-.048 4.116-.466 7.075-4.18 6.609-8.296l-3.277-28.964c-.268-2.365-1.642-4.462-3.702-5.652-2.063-1.191-4.565-1.332-6.746-.38l-26.723 11.643c-3.797 1.654-5.534 6.074-3.88 9.871 1.654 3.798 6.074 5.536 9.872 3.88l5.845-2.547-11.654 20.187c-4.971 8.609-4.971 18.89 0 27.5s13.874 13.75 23.815 13.75h25.944c4.143 0 7.5-3.358 7.5-7.5s-3.357-7.5-7.5-7.5z"/></g></g></g></svg>