<svg height="512" viewBox="0 0 512 512" width="512" xmlns="http://www.w3.org/2000/svg"><g id="Outline"><path d="m80 176v28.686l-13.657 13.657 11.314 11.314 36-36a8.97 8.97 0 1 1 12.686 12.686l-36 36a8 8 0 0 0 0 11.314 37.3 37.3 0 0 1 0 52.686l-40 40 11.314 11.314 18.343-18.343v60.686a32.036 32.036 0 0 0 32 32h184v-16h-144v-16h144v-16h-184a16.019 16.019 0 0 1 -16-16v-44.686l5.657-5.657a53.282 53.282 0 0 0 5.238-69.238l30.762-30.762a24.971 24.971 0 0 0 -35.314-35.314l-6.343 6.343v-92.686a16.019 16.019 0 0 1 16-16h336a16.019 16.019 0 0 1 16 16v224h16v-224a32.036 32.036 0 0 0 -32-32h-336a32.036 32.036 0 0 0 -32 32v64h-24a32.036 32.036 0 0 0 -32 32v68.687l-13.657 13.656 11.314 11.314 16-16a8 8 0 0 0 2.343-5.657v-72a16.019 16.019 0 0 1 16-16zm32 224h24v16h-24a16.019 16.019 0 0 1 -16-16v-4.3a31.8 31.8 0 0 0 16 4.3z"/><path d="m464 336a23.889 23.889 0 0 0 -8 1.376v-1.376a23.982 23.982 0 0 0 -35.777-20.9 23.964 23.964 0 0 0 -28.223-9.724v-9.376a24 24 0 0 0 -48 0v67.056l-8.378 4.189a42.708 42.708 0 0 0 -4.6 73.741l21.824 14.55a16.014 16.014 0 0 1 7.154 13.344v27.12h16v-27.12a31.98 31.98 0 0 0 -14.273-26.651l-13.3-8.895-8.532-5.661a26.683 26.683 0 0 1 -7.868-36.3 26.427 26.427 0 0 1 10.755-9.82l1.222-.611v27.058h16v-112a8 8 0 0 1 16 0v64h16v-32a8 8 0 0 1 16 0v40h16v-32a8 8 0 0 1 16 0v40h16v-16a8 8 0 0 1 16 0v28.223a144.272 144.272 0 0 1 -15.155 64.2 7.994 7.994 0 0 0 -.849 3.577v40h16v-38.138a160.389 160.389 0 0 0 16-69.639v-28.223a24.028 24.028 0 0 0 -24-24z"/><path d="m362.365 148.73a29.635 29.635 0 1 0 29.635 29.635 29.668 29.668 0 0 0 -29.635-29.635zm0 43.27a13.635 13.635 0 1 1 13.635-13.635 13.65 13.65 0 0 1 -13.635 13.635z"/><path d="m437.36 164.913a8 8 0 0 0 2.031-9l-6.683-16.136a7.944 7.944 0 0 0 -7.8-4.928l-15.1.77-4.7-4.7.771-15.1a8 8 0 0 0 -4.929-7.8l-16.136-6.682a7.994 7.994 0 0 0 -9 2.03l-10.128 11.219h-6.648l-10.125-11.216a8 8 0 0 0 -9-2.03l-16.136 6.682a8 8 0 0 0 -4.928 7.8l.77 15.1-4.7 4.7-15.1-.77a7.934 7.934 0 0 0 -7.8 4.928l-6.682 16.136a8 8 0 0 0 2.03 9l11.219 10.128v6.648l-11.216 10.125a8 8 0 0 0 -2.03 9l6.682 16.136a7.958 7.958 0 0 0 7.8 4.929l15.1-.771 4.7 4.7-.77 15.1a8 8 0 0 0 4.928 7.8l16.136 6.683a8 8 0 0 0 9-2.031l10.128-11.218h6.648l10.128 11.218a8 8 0 0 0 9 2.031l16.136-6.683a8 8 0 0 0 4.929-7.8l-.771-15.1 4.7-4.7 15.1.771a7.98 7.98 0 0 0 7.8-4.929l6.683-16.136a8 8 0 0 0 -2.031-9l-11.218-10.128v-6.648zm-24.579 26.271 9.667 8.727-2.362 5.7-13.008-.664a8.011 8.011 0 0 0 -6.065 2.332l-9.73 9.73a8 8 0 0 0 -2.332 6.065l.664 13.008-5.7 2.362-8.727-9.667a8 8 0 0 0 -5.939-2.639h-13.76a8 8 0 0 0 -5.938 2.639l-8.728 9.667-5.7-2.362.664-13.008a7.991 7.991 0 0 0 -2.332-6.065l-9.729-9.73a8.011 8.011 0 0 0 -6.066-2.332l-13.007.664-2.363-5.7 9.667-8.727a8 8 0 0 0 2.64-5.939v-13.76a8 8 0 0 0 -2.64-5.938l-9.667-8.728 2.363-5.7 13.007.664a7.993 7.993 0 0 0 6.066-2.332l9.729-9.729a8 8 0 0 0 2.332-6.066l-.664-13.007 5.7-2.363 8.728 9.667a8 8 0 0 0 5.938 2.64h13.76a8 8 0 0 0 5.939-2.64l8.727-9.667 5.7 2.363-.664 13.007a8 8 0 0 0 2.332 6.066l9.73 9.729a8 8 0 0 0 6.065 2.332l13.008-.664 2.362 5.7-9.667 8.728a8 8 0 0 0 -2.639 5.938v13.76a8 8 0 0 0 2.639 5.939z"/><path d="m136 336v16h176v-16h-16v-24h-16v24h-16v-40h-16v40h-16v-64h-16v64h-16v-40h-16v40h-16v-24h-16v24z"/><path d="m144 112h16v16h-16z"/><path d="m176 112h80v16h-80z"/><path d="m128 144h128v16h-128z"/><path d="m160 176h96v16h-96z"/><path d="m160 208h80v16h-80z"/><path d="m152 32h208v16h-208z"/><path d="m376 32h16v16h-16z"/></g></svg>