<svg height="512" viewBox="0 0 60 60" width="512" xmlns="http://www.w3.org/2000/svg"><g id="Page-1" fill="none" fill-rule="evenodd"><g id="018---Battery-Recycling" fill="rgb(0,0,0)" fill-rule="nonzero"><path id="Shape" d="m7 15h2v2c0 .5522847.44771525 1 1 1 .5522847 0 1-.4477153 1-1v-2h2c.5522847 0 1-.4477153 1-1s-.4477153-1-1-1h-2v-2c0-.5522847-.4477153-1-1-1-.55228475 0-1 .4477153-1 1v2h-2c-.55228475 0-1 .4477153-1 1s.44771525 1 1 1z"/><path id="Shape" d="m40.18 15.41-1.42 1.41c-.1893127.1877666-.2957983.4433625-.2957983.71s.1064856.5222334.2957983.71c.1877666.1893127.4433625.2957983.71.2957983s.5222334-.1064856.71-.2957983l1.41-1.42 1.41 1.42c.1862606.1847442.4376601.2888954.7.29.265803.0015368.5212812-.1028135.71-.29.1893127-.1877666.2957983-.4433625.2957983-.71s-.1064856-.5222334-.2957983-.71l-1.41-1.41 1.42-1.41c.2536586-.2536586.3527235-.623374.259878-.969878-.0928454-.3465041-.3634959-.6171546-.71-.71-.346504-.0928455-.7162194.0062194-.969878.259878l-1.41 1.42-1.41-1.41c-.1877666-.1893127-.4433625-.2957983-.71-.2957983s-.5222334.1064856-.71.2957983c-.3877236.3900375-.3877236 1.0199625 0 1.41z"/><path id="Shape" d="m5 24c-.55228475 0-1 .4477153-1 1v2c0 .5522847.44771525 1 1 1s1-.4477153 1-1v-2c0-.5522847-.44771525-1-1-1z"/><path id="Shape" d="m5 30c-.55228475 0-1 .4477153-1 1v19c0 .5522847.44771525 1 1 1s1-.4477153 1-1v-19c0-.5522847-.44771525-1-1-1z"/><path id="Shape" d="m46.54 24.6 5.66-5.6c.5648636-.5629056.8823657-1.3275456.8823657-2.125s-.3175021-1.5620944-.8823657-2.125l-.82-.81 2.06-2.94c.8494867-1.19238315.7142413-2.82378083-.32-3.86l-3.26-3.26c-1.0362192-1.0342413-2.6676168-1.1694867-3.86-.32l-2.89 2.06-.81-.82c-.5629056-.56486356-1.3275456-.88236571-2.125-.88236571s-1.5620944.31750215-2.125.88236571l-18.05 18.06v-13.86c0-1.65685425-1.3431458-3-3-3h-1.15l-.59-3.49c-.2391247-1.44441576-1.485932-2.50525863-2.95-2.51h-4.62c-1.46406796.00474137-2.71087532 1.06558424-2.95 2.51l-.59 3.49h-1.15c-1.65685425 0-3 1.34314575-3 3v48c0 1.6568542 1.34314575 3 3 3h14c1.6568542 0 3-1.3431458 3-3v-5.86l4.6-4.6c2.2007482 8.4920207 10.2027976 14.1607446 18.9440325 13.4201235 8.741235-.7406212 15.6754698-7.674856 16.416091-16.416091.7406211-8.7412349-4.9281028-16.7432843-13.4201235-18.9440325zm.62-19.41c.3965389-.28681697.9424005-.24450212 1.29.1l3.26 3.26c.3445021.34759949.386817.89346105.1 1.29l-1.81 2.61-5.4-5.4zm-7.69 1c.3900375-.38772359 1.0199625-.38772359 1.41 0l9.9 9.9c.3877236.3900375.3877236 1.0199625 0 1.41l-6.61 6.61c-.7206922-.0774073-1.4451745-.1141322-2.17-.11h-.28l-10-10zm-37.47 15.81h16v31h-16zm4.71-19.16c.07922838-.4890578.50460721-.84637602 1-.84h4.62c.4953928-.00637602.9207716.3509422 1 .84l.49 3.16h-7.64zm-3.71 5.16h14c.5522847 0 1 .44771525 1 1v11h-16v-11c0-.55228475.44771525-1 1-1zm14 50h-14c-.55228475 0-1-.4477153-1-1v-2h16v2c0 .5522847-.4477153 1-1 1zm3-9.68v-22.64l10.28-10.28 8.85 8.85c-8.7129246 1.4072248-15.1203279 8.9241718-15.13 17.75.0058274.7253903.0525683 1.4498745.14 2.17zm22 9.68c-8.836556 0-16-7.163444-16-16s7.163444-16 16-16 16 7.163444 16 16c0 4.2434638-1.6857094 8.3131264-4.6862915 11.3137085s-7.0702447 4.6862915-11.3137085 4.6862915z"/><path id="Shape" d="m46.9 38.15c.1760862-.0018287.3485672-.0501234.5-.14.2297442-.133628.3968418-.3532172.4643886-.6102702.0675467-.257053.0299853-.5304211-.1043886-.7597298l-3.87-6.56c-.3928915-.6711874-1.112275-1.0836547-1.89-1.0836547s-1.4971085.4124673-1.89 1.0836547l-2.82 4.79-.39-1.7c-.0803847-.348334-.3404973-.6273231-.6823557-.7318748-.3418584-.1045518-.7135264-.0187822-.975.225-.2614737.2437822-.3730291.6085408-.2926443.9568748l.95 4.14c.1088118.4611676.5263385.7826631 1 .77h.22l4.13-1c.2586729-.0595235.4830686-.2194458.6237478-.4445326.1406793-.2250868.186099-.4968691.1262522-.7554674-.0595235-.2586729-.2194458-.4830686-.4445326-.6237478-.2250868-.1406793-.4968691-.186099-.7554674-.1262522l-1.88.42 2.92-4.94c.0349291-.0545397.0952341-.0875305.16-.0875305s.1250709.0329908.16.0875305l3.84 6.59c.1845663.3201614.5306581.5124346.9.5z"/><path id="Shape" d="m37.71 45.29c-.3921222-.3921222-1.0278778-.3921222-1.42 0s-.3921222 1.0278778 0 1.42l1.3 1.29h-5.4c-.0663395.0038495-.1288405-.0313073-.16-.09-.038695-.0574229-.038695-.1325771 0-.19l3.14-5.32c.1449231-.2306173.1895059-.5103709.1234458-.7746114-.0660602-.2642406-.2370467-.4901019-.4734458-.6253886-.4749776-.2815765-1.088281-.1248931-1.37.35l-3.15 5.36c-.3931802.676875-.3951866 1.5121395-.0052629 2.1908957.3899238.6787562 1.1124802 1.0977824 1.8952629 1.0991043h5.4l-1.3 1.29c-.1893127.1877666-.2957983.4433625-.2957983.71s.1064856.5222334.2957983.71c.1877666.1893127.4433625.2957983.71.2957983s.5222334-.1064856.71-.2957983l3-3c.1893127-.1877666.2957983-.4433625.2957983-.71s-.1064856-.5222334-.2957983-.71z"/><path id="Shape" d="m48.89 40.29c-.2331177.1242736-.4114302.3311161-.5.58l-1.34 4c-.171671.5217435.1096026 1.0842907.63 1.26.1029211.0352553.2112299.0521785.32.05.4481524.0233915.8570061-.2546291 1-.68l.62-1.88 2.38 4.1c.038695.0574229.038695.1325771 0 .19-.0311595.0586927-.0936605.0938495-.16.09h-7.46c-.5522847 0-1 .4477153-1 1s.4477153 1 1 1h7.43c.7827827-.0013219 1.5053391-.4203481 1.8952629-1.0991043.3899237-.6787562.3879173-1.5140207-.0052629-2.1908957l-2.22-3.71 1.57.52c.5246705.1739697 1.0910303-.1103295 1.265-.635s-.1103295-1.0910303-.635-1.265l-4-1.34c-.2535432-.1052426-.539202-.1016267-.79.01z"/></g></g></svg>